# xmcd CD database file
#
# Track frame offsets:
#	150
#	11838
#	27952
#	48804
#	64100
#	80475
#	94085
#	105646
#	122104
#	133669
#	146690
#
# Disc length: 2186 seconds
#
# Revision: 1
# Processed by: cddbd v1.5.2PL0 Copyright (c) Steve Scherf et al.
# Submitted via: CDex 1.51
#
DISCID=9208880b
DTITLE=Sarah Jarosz - Undercurrent
DYEAR=2016
DGENRE=Folk
TTITLE0=Early Morning Light
TTITLE1=Green Lights
TTITLE2=House Of Mercy
TTITLE3=Everything To Hide
TTITLE4=Back Of My Mind
TTITLE5=Comin' Undone
TTITLE6=Take Another Turn
TTITLE7=Lost Dog
TTITLE8=Take Me Back
TTITLE9=Still Life
TTITLE10=Jacqueline
EXTD=YEAR: 2016
EXTT0=
EXTT1=
EXTT2=
EXTT3=
EXTT4=
EXTT5=
EXTT6=
EXTT7=
EXTT8=
EXTT9=
EXTT10=
PLAYORDER=
